<svg width="30" height="32" viewBox="0 0 30 32" fill="none" xmlns="http://www.w3.org/2000/svg">
<path d="M11.2167 26.0215C4.41889 28.0608 4.41889 22.6226 1.69977 21.9428M20.7336 30.1001V24.8386C20.7846 24.1904 20.697 23.5386 20.4767 22.9268C20.2563 22.315 19.9083 21.7571 19.4556 21.2902C23.7247 20.8143 28.2112 19.1965 28.2112 11.7733C28.2109 9.87508 27.4807 8.0497 26.1719 6.67491C26.7916 5.01422 26.7478 3.1786 26.0495 1.54937C26.0495 1.54937 24.4452 1.07352 20.7336 3.56152C17.6175 2.71699 14.3328 2.71699 11.2167 3.56152C7.50509 1.07352 5.90081 1.54937 5.90081 1.54937C5.20251 3.1786 5.15869 5.01422 5.77845 6.67491C4.45985 8.05989 3.72894 9.90178 3.73911 11.8141C3.73911 19.1829 8.22566 20.8007 12.4947 21.331C12.0474 21.7932 11.7024 22.3444 11.4822 22.9487C11.262 23.5531 11.1716 24.197 11.2167 24.8386V30.1001" stroke="#FBEC13" stroke-width="2.65942" stroke-linecap="round" stroke-linejoin="round"/>
</svg>
