<svg width="31" height="29" viewBox="0 0 31 29" fill="none" xmlns="http://www.w3.org/2000/svg">
<path d="M20.7894 9.6703C22.9529 9.6703 25.0277 10.5297 26.5575 12.0595C28.0873 13.5893 28.9468 15.6642 28.9468 17.8277V27.3446H23.5085V17.8277C23.5085 17.1065 23.222 16.4149 22.7121 15.905C22.2022 15.395 21.5106 15.1085 20.7894 15.1085C20.0683 15.1085 19.3766 15.395 18.8667 15.905C18.3568 16.4149 18.0703 17.1065 18.0703 17.8277V27.3446H12.632V17.8277C12.632 15.6642 13.4915 13.5893 15.0213 12.0595C16.5511 10.5297 18.6259 9.6703 20.7894 9.6703Z" stroke="#FBEC13" stroke-width="2.65942" stroke-linecap="round" stroke-linejoin="round"/>
<path d="M7.1938 11.0299H1.75555V27.3446H7.1938V11.0299Z" stroke="#FBEC13" stroke-width="2.65942" stroke-linecap="round" stroke-linejoin="round"/>
<path d="M4.47468 6.95118C5.97641 6.95118 7.1938 5.73379 7.1938 4.23206C7.1938 2.73033 5.97641 1.51294 4.47468 1.51294C2.97295 1.51294 1.75555 2.73033 1.75555 4.23206C1.75555 5.73379 2.97295 6.95118 4.47468 6.95118Z" stroke="#FBEC13" stroke-width="2.65942" stroke-linecap="round" stroke-linejoin="round"/>
</svg>
