<svg width="23" height="22" viewBox="0 0 23 22" fill="none" xmlns="http://www.w3.org/2000/svg">
<path d="M16.6995 5.5H16.7095M6.19946 1H16.1995C18.9609 1 21.1995 3.23858 21.1995 6V16C21.1995 18.7614 18.9609 21 16.1995 21H6.19946C3.43804 21 1.19946 18.7614 1.19946 16V6C1.19946 3.23858 3.43804 1 6.19946 1ZM15.1995 10.37C15.3229 11.2022 15.1807 12.0522 14.7932 12.799C14.4057 13.5458 13.7926 14.1514 13.0411 14.5297C12.2896 14.9079 11.4379 15.0396 10.6072 14.9059C9.77659 14.7723 9.00922 14.3801 8.4143 13.7852C7.81938 13.1902 7.4272 12.4229 7.29353 11.5922C7.15987 10.7616 7.29153 9.90989 7.66979 9.15837C8.04805 8.40685 8.65365 7.79374 9.40045 7.40624C10.1472 7.01874 10.9972 6.87659 11.8295 7C12.6784 7.12588 13.4643 7.52146 14.0712 8.12831C14.678 8.73515 15.0736 9.52108 15.1995 10.37Z" stroke="#FBEC13" stroke-width="2" stroke-linecap="round" stroke-linejoin="round"/>
</svg>
