<svg width="110" height="84" viewBox="0 0 110 84" fill="none" xmlns="http://www.w3.org/2000/svg">
<g style="mix-blend-mode:soft-light">
<path d="M9.93846 76.6666C3.6557 70.0329 0.282532 62.5928 0.282532 50.5321C0.282532 29.3091 15.2696 10.2873 37.0641 0.882507L42.5112 9.23829C22.1685 20.1772 18.1914 34.3723 16.6055 43.3223C19.8811 41.6366 24.1692 41.0484 28.3719 41.4365C39.3759 42.4492 48.0498 51.4295 48.0498 62.5928C48.0498 68.2214 45.8005 73.6196 41.7967 77.5997C37.793 81.5797 32.3628 83.8157 26.7006 83.8157C23.5693 83.7885 20.4748 83.1424 17.5971 81.9151C14.7194 80.6877 12.116 78.9036 9.93846 76.6666ZM70.9361 76.6666C64.6533 70.0329 61.2802 62.5928 61.2802 50.5321C61.2802 29.3091 76.2673 10.2873 98.0617 0.882507L103.509 9.23829C83.1661 20.1772 79.1891 34.3723 77.6031 43.3223C80.8787 41.6366 85.1668 41.0484 89.3696 41.4365C100.374 42.4492 109.047 51.4295 109.047 62.5928C109.047 68.2214 106.798 73.6196 102.794 77.5997C98.7906 81.5797 93.3604 83.8157 87.6982 83.8157C84.567 83.7885 81.4724 83.1424 78.5947 81.9151C75.717 80.6877 73.1136 78.9036 70.9361 76.6666Z" fill="#F8F6F0"/>
</g>
</svg>
