<svg width="25" height="18" viewBox="0 0 25 18" fill="none" xmlns="http://www.w3.org/2000/svg">
<path d="M22.74 3.69002C22.6212 3.21543 22.3793 2.78059 22.0387 2.42943C21.6981 2.07826 21.2708 1.8232 20.8 1.69002C19.08 1.27002 12.2 1.27002 12.2 1.27002C12.2 1.27002 5.32003 1.27002 3.60003 1.73002C3.12928 1.8632 2.70201 2.11826 2.36138 2.46943C2.02075 2.82059 1.77882 3.25543 1.66003 3.73002C1.34525 5.47558 1.19127 7.24633 1.20003 9.02002C1.18881 10.8071 1.3428 12.5913 1.66003 14.35C1.79099 14.8099 2.03834 15.2282 2.37818 15.5645C2.71802 15.9008 3.13886 16.1438 3.60003 16.27C5.32003 16.73 12.2 16.73 12.2 16.73C12.2 16.73 19.08 16.73 20.8 16.27C21.2708 16.1368 21.6981 15.8818 22.0387 15.5306C22.3793 15.1794 22.6212 14.7446 22.74 14.27C23.0524 12.5376 23.2064 10.7804 23.2 9.02002C23.2113 7.23297 23.0573 5.44872 22.74 3.69002Z" stroke="#FBEC13" stroke-width="2" stroke-linecap="round" stroke-linejoin="round"/>
<path d="M9.95003 12.29L15.7 9.02002L9.95003 5.75002V12.29Z" stroke="#FBEC13" stroke-width="2" stroke-linecap="round" stroke-linejoin="round"/>
</svg>
